<svg xmlns="http://www.w3.org/2000/svg" width="375" height="300" fill="none"><path fill="#3A3054" d="M0 0h375v300H0z"/><mask id="a" width="375" height="300" x="0" y="0" maskUnits="userSpaceOnUse" style="mask-type:luminance"><path fill="#fff" d="M0 0h375v300H0z"/></mask><g fill="#4B3F6B" fill-rule="evenodd" clip-rule="evenodd" mask="url(#a)"><path d="M-263.351 570.909c29.685 77.331 73.689 123.988 171.79 127.377 98.102 3.39 167.085-60.547 256.043-73.22 88.958-12.674 135.24 107.895 240.729 152.532 105.489 44.638 274.776.333 377.902-125.622 103.126-125.955 95.506-324.687 16.278-413.178-79.229-88.491-191.134-154.055-555.89-14.038-364.757 140.017-536.537 268.818-506.852 346.149ZM-514-377.482c0 82.833 24.361 142.161 114.732 180.482s177.686 3.352 265.277 23.4c87.59 20.048 87.59 149.195 170.077 228.671 82.486 79.476 256.405 98.781 397.82 18.15C575.321-7.412 639.427-195.675 597.173-306.681 554.919-417.687 473.943-519 83.236-519S-514-460.314-514-377.482Z"/></g></svg>